# xmcd
#
# Track frame offsets: 
#        150
#        16258
#        28059
#        47207
#        63034
#        88815
#        105814
#        122614
#        142720
#        159657
#        176132
#        199205
#
# Disc length: 2819 seconds
#
# Revision: 0
# Processed by: cddbd v1.5.2PL0 Copyright (c) Steve Scherf et al.
# Submitted via: ExactAudioCopy v0.99pb5
#
DISCID=950b010c
DTITLE=Jace Everett - Red Revelations
DYEAR=2010
DGENRE=Blues
TTITLE0=Possession
TTITLE1=Burn For You
TTITLE2=More To Life (C'mon C'mon)
TTITLE3=the Good Life
TTITLE4=Damned If I Do
TTITLE5=One of Them
TTITLE6=Permanent Thing
TTITLE7=Little Black Dress
TTITLE8=Lean Into the Wind
TTITLE9=What It Is
TTITLE10=Slip Away
TTITLE11=Bad Things (True Blood Theme)
EXTD=
EXTT0=
EXTT1=
EXTT2=
EXTT3=
EXTT4=
EXTT5=
EXTT6=
EXTT7=
EXTT8=
EXTT9=
EXTT10=
EXTT11=
PLAYORDER=
